<?xml version="1.0" encoding="UTF-8" standalone="no"?>
<!DOCTYPE svg PUBLIC "-//W3C//DTD SVG 1.1//EN" "http://www.w3.org/Graphics/SVG/1.1/DTD/svg11.dtd">
<svg width="100%" height="100%" viewBox="0 0 1080 1080" version="1.1" xmlns="http://www.w3.org/2000/svg" xmlns:xlink="http://www.w3.org/1999/xlink" xml:space="preserve" xmlns:serif="http://www.serif.com/" style="fill-rule:evenodd;clip-rule:evenodd;stroke-linejoin:round;stroke-miterlimit:1.5;">
    <g id="base--dark-" serif:id="base (dark)">
        <g transform="matrix(1,0,0,1.09088,4.19792,-24.1465)">
            <path d="M135.802,150.471L135.802,883.823" style="fill:none;stroke:white;stroke-width:1.91px;"/>
        </g>
        <g transform="matrix(1.08338,0,0,1,53.3297,-10)">
            <path d="M80,950L818.431,950" style="fill:none;stroke:white;stroke-width:1.92px;stroke-linecap:round;"/>
        </g>
        <g transform="matrix(1,0,0,0.938416,-34.2253,72.6088)">
            <path d="M974.225,913.658L974.225,934.97" style="fill:none;stroke:white;stroke-width:3.09px;"/>
        </g>
        <g>
            <g transform="matrix(6.12323e-17,-1,0.938416,5.74614e-17,-727.391,1114.23)">
                <path d="M974.225,913.658L974.225,934.97" style="fill:none;stroke:white;stroke-width:2.06px;"/>
            </g>
            <g transform="matrix(6.12323e-17,-1,0.938416,5.74614e-17,-727.391,1514.23)">
                <path d="M974.225,913.658L974.225,934.97" style="fill:none;stroke:white;stroke-width:2.06px;"/>
            </g>
            <g transform="matrix(6.12323e-17,-1,0.938416,5.74614e-17,-727.391,1314.23)">
                <path d="M974.225,913.658L974.225,934.97" style="fill:none;stroke:white;stroke-width:2.06px;"/>
            </g>
            <g transform="matrix(6.12323e-17,-1,0.938416,5.74614e-17,-727.391,1714.23)">
                <path d="M974.225,913.658L974.225,934.97" style="fill:none;stroke:white;stroke-width:2.06px;"/>
            </g>
            <g transform="matrix(6.12323e-17,-1,0.938416,5.74614e-17,-727.391,1114.23)">
                <path d="M974.225,913.658L974.225,934.97" style="fill:none;stroke:white;stroke-width:2.06px;"/>
            </g>
        </g>
        <g transform="matrix(6.12323e-17,-1,0.938416,5.74614e-17,-727.391,1114.23)">
            <path d="M974.225,913.658L974.225,934.97" style="fill:none;stroke:white;stroke-width:2.06px;"/>
        </g>
        <g transform="matrix(1,0,0,0.938416,-434.225,72.6088)">
            <path d="M974.225,913.658L974.225,934.97" style="fill:none;stroke:white;stroke-width:2.06px;"/>
        </g>
        <g transform="matrix(1,0,0,1,46.1206,-8.16667)">
            <g transform="matrix(24,0,0,24,914.639,993.777)">
            </g>
            <text x="852.829px" y="993.777px" style="font-family:'Inter-Regular', 'Inter';font-size:24px;fill:white;stroke:white;stroke-width:1px;stroke-miterlimit:2;">1<tspan x="861.991px 876.532px 891.072px " y="993.777px 993.777px 993.777px ">00%</tspan></text>
        </g>
        <g transform="matrix(1,0,0,1,-353.879,-8.16667)">
            <g transform="matrix(24,0,0,24,920.465,993.777)">
            </g>
            <text x="868.368px" y="993.777px" style="font-family:'Inter-Regular', 'Inter';font-size:24px;fill:white;stroke:white;stroke-width:1px;stroke-miterlimit:2;">5<tspan x="882.358px 896.899px " y="993.777px 993.777px ">0%</tspan></text>
        </g>
        <g transform="matrix(1,0,0,1,-353.879,49.8333)">
            <g transform="matrix(32,0,0,32,912.528,993.777)">
            </g>
            <g transform="matrix(32,0,0,32,1007.92,993.777)">
            </g>
            <text x="780.915px" y="993.777px" style="font-family:'Inter-Medium', 'Inter';font-weight:500;font-size:32px;fill:white;stroke:white;stroke-width:1px;stroke-miterlimit:2;">D<tspan x="803.209px 821.659px 833.093px 850.465px 860.556px 867.818px 886.347px 904.797px 912.528px 923.525px 943.615px 950.878px 978.5px 996.122px " y="993.777px 993.777px 993.777px 993.777px 993.777px 993.777px 993.777px 993.777px 993.777px 993.777px 993.777px 993.777px 993.777px 993.777px ">uration Time)</tspan></text>
        </g>
        <g transform="matrix(1,0,0,1,-753.893,-8.16667)">
            <g transform="matrix(24,0,0,24,901.987,993.777)">
            </g>
            <text x="886.847px" y="993.777px" style="font-family:'Inter-Regular', 'Inter';font-size:24px;fill:white;stroke:white;stroke-width:1px;stroke-miterlimit:2;">0</text>
        </g>
        <g transform="matrix(6.12323e-17,-1,1,6.12323e-17,-901.085,1434.14)">
            <g transform="matrix(32,0,0,32,931.262,993.777)">
            </g>
            <text x="857.572px" y="993.777px" style="font-family:'Inter-Medium', 'Inter';font-weight:500;font-size:32px;fill:white;stroke:white;stroke-width:1px;stroke-miterlimit:2;">P<tspan x="877.303px 884.565px 894.343px 912.012px " y="993.777px 993.777px 993.777px 993.777px ">itch</tspan></text>
        </g>
    </g>
    <g id="tones">
        <path d="M140,505.17L681.038,505.17C681.038,505.17 857.861,507.942 940,573.986" style="fill:none;stroke:rgb(242,175,13);stroke-width:6px;"/>
        <path d="M140,640.116C140,640.116 232.764,773.327 507.686,773.327L940,773.327" style="fill:none;stroke:rgb(13,121,242);stroke-width:6px;"/>
        <g transform="matrix(1,0,0,1,0,-10)">
            <path d="M140,380.592C140,380.592 213.804,289.324 338.892,280.095C418.244,274.24 529.646,319.503 616.082,444.497C780.424,682.149 854.119,746.116 940,815.604" style="fill:none;stroke:rgb(147,13,242);stroke-width:6px;"/>
        </g>
        <g transform="matrix(1,0,0,1,0,-10)">
            <path d="M140,469.076C140,469.076 448.922,267.403 693.823,279.13C795.816,284.014 887.809,336.163 940,430.382" style="fill:none;stroke:rgb(242,13,13);stroke-width:6px;"/>
        </g>
        <path d="M140,670.885C140,670.885 398.192,1169.96 940,249.442" style="fill:none;stroke:rgb(74,230,26);stroke-width:6px;"/>
        <g transform="matrix(1,0,0,1,-9.80729,10)">
            <g transform="matrix(32,0,0,32,952.12,217.769)">
            </g>
            <text x="862.948px" y="217.769px" style="font-family:'Inter-Medium', 'Inter';font-weight:500;font-size:32px;fill:rgb(74,230,26);">R<tspan x="882.882px 890.145px 906.579px 913.842px 932.292px " y="217.769px 217.769px 217.769px 217.769px 217.769px ">ising</tspan></text>
        </g>
        <g transform="matrix(1,0,0,1,23.9177,309.339)">
            <g transform="matrix(32,0,0,32,918.395,217.769)">
            </g>
            <text x="862.948px" y="217.769px" style="font-family:'Inter-Medium', 'Inter';font-weight:500;font-size:32px;fill:rgb(242,175,13);">M<tspan x="891.351px 898.614px " y="217.769px 217.769px ">id</tspan></text>
        </g>
        <g transform="matrix(1,0,0,1,-15.4292,623.286)">
            <g transform="matrix(32,0,0,32,957.742,217.769)">
            </g>
            <text x="862.948px" y="217.769px" style="font-family:'Inter-Medium', 'Inter';font-weight:500;font-size:32px;fill:rgb(147,13,242);">F<tspan x="880.304px 897.676px 904.939px 912.201px 919.464px 937.914px " y="217.769px 217.769px 217.769px 217.769px 217.769px 217.769px ">alling</tspan></text>
        </g>
        <g transform="matrix(1,0,0,1,16.1208,523.151)">
            <g transform="matrix(32,0,0,32,924.77,217.769)">
            </g>
            <text x="862.948px" y="217.769px" style="font-family:'Inter-Medium', 'Inter';font-weight:500;font-size:32px;fill:rgb(13,121,242);">L<tspan x="880.242px 898.239px " y="217.769px 217.769px ">ow</tspan></text>
        </g>
        <g transform="matrix(1,0,0,1,10.7802,240.947)">
            <g transform="matrix(32,0,0,32,931.517,217.769)">
            </g>
            <text x="862.948px" y="217.769px" style="font-family:'Inter-Medium', 'Inter';font-weight:500;font-size:32px;fill:rgb(242,13,13);">H<tspan x="885.976px 893.239px 912.267px " y="217.769px 217.769px 217.769px ">igh</tspan></text>
        </g>
    </g>
</svg>
